<mxfile host="app.diagrams.net" modified="2022-05-28T14:19:45.836Z" agent="5.0 (Windows NT 10.0; Win64; x64) AppleWebKit/537.36 (KHTML, like Gecko) Chrome/101.0.4951.67 Safari/537.36" etag="37a-GiMeAJAgl5yP_bEK" version="18.1.2" type="github">
  <diagram id="C5RBs43oDa-KdzZeNtuy" name="Page-1">
    <mxGraphModel dx="1550" dy="407" grid="1" gridSize="10" guides="1" tooltips="1" connect="1" arrows="1" fold="1" page="1" pageScale="1" pageWidth="827" pageHeight="1169" math="0" shadow="0">
      <root>
        <mxCell id="WIyWlLk6GJQsqaUBKTNV-0" />
        <mxCell id="WIyWlLk6GJQsqaUBKTNV-1" parent="WIyWlLk6GJQsqaUBKTNV-0" />
        <mxCell id="wvQzWiMlblMlw7H_hbkp-0" value="Users" style="rounded=0;whiteSpace=wrap;html=1;" parent="WIyWlLk6GJQsqaUBKTNV-1" vertex="1">
          <mxGeometry x="703" y="304" width="60" height="30" as="geometry" />
        </mxCell>
        <mxCell id="wvQzWiMlblMlw7H_hbkp-1" value="" style="endArrow=none;html=1;rounded=0;entryX=0;entryY=0.5;entryDx=0;entryDy=0;" parent="WIyWlLk6GJQsqaUBKTNV-1" edge="1">
          <mxGeometry width="50" height="50" relative="1" as="geometry">
            <mxPoint x="683" y="320" as="sourcePoint" />
            <mxPoint x="703" y="320" as="targetPoint" />
          </mxGeometry>
        </mxCell>
        <mxCell id="wvQzWiMlblMlw7H_hbkp-2" value="" style="endArrow=none;html=1;rounded=0;" parent="WIyWlLk6GJQsqaUBKTNV-1" edge="1">
          <mxGeometry width="50" height="50" relative="1" as="geometry">
            <mxPoint x="683" y="464" as="sourcePoint" />
            <mxPoint x="681" y="184" as="targetPoint" />
          </mxGeometry>
        </mxCell>
        <mxCell id="wvQzWiMlblMlw7H_hbkp-4" value="&lt;p class=&quot;MsoNormal&quot;&gt;&lt;span style=&quot;font-family: &amp;#34;times new roman&amp;#34; ; font-size: 10.5000pt&quot;&gt;Stock Market News&lt;/span&gt;&lt;/p&gt;" style="rounded=1;whiteSpace=wrap;html=1;fontSize=12;glass=0;strokeWidth=1;shadow=0;arcSize=20;" parent="WIyWlLk6GJQsqaUBKTNV-1" vertex="1">
          <mxGeometry x="446" y="494" width="120" height="40" as="geometry" />
        </mxCell>
        <mxCell id="wvQzWiMlblMlw7H_hbkp-5" value="&lt;p class=&quot;MsoNormal&quot;&gt;&lt;span style=&quot;font-family: &amp;#34;times new roman&amp;#34; ; font-size: 10.5000pt&quot;&gt;User &lt;/span&gt;&lt;span style=&quot;font-family: &amp;#34;times new roman&amp;#34; ; font-size: 10.5000pt&quot;&gt;M&lt;/span&gt;&lt;span style=&quot;font-family: &amp;#34;times new roman&amp;#34; ; font-size: 10.5000pt&quot;&gt;anagement&lt;/span&gt;&lt;/p&gt;" style="rounded=1;whiteSpace=wrap;html=1;fontSize=12;glass=0;strokeWidth=1;shadow=0;" parent="WIyWlLk6GJQsqaUBKTNV-1" vertex="1">
          <mxGeometry x="448.85" y="365.42" width="120" height="40" as="geometry" />
        </mxCell>
        <mxCell id="wvQzWiMlblMlw7H_hbkp-6" value="&lt;p class=&quot;MsoNormal&quot;&gt;&lt;span style=&quot;font-family: &amp;#34;times new roman&amp;#34; ; font-size: 10.5pt&quot;&gt;Stock&amp;nbsp;&lt;/span&gt;&lt;span style=&quot;font-family: &amp;#34;times new roman&amp;#34; ; font-size: 10.5pt&quot;&gt;I&lt;/span&gt;&lt;span style=&quot;font-family: &amp;#34;times new roman&amp;#34; ; font-size: 10.5pt&quot;&gt;nformation&lt;/span&gt;&lt;br&gt;&lt;/p&gt;" style="rounded=1;whiteSpace=wrap;html=1;fontSize=12;glass=0;strokeWidth=1;shadow=0;" parent="WIyWlLk6GJQsqaUBKTNV-1" vertex="1">
          <mxGeometry x="447" y="299" width="120" height="40" as="geometry" />
        </mxCell>
        <mxCell id="wvQzWiMlblMlw7H_hbkp-9" value="&lt;p class=&quot;MsoNormal&quot;&gt;&lt;font face=&quot;times new roman&quot;&gt;&lt;span style=&quot;font-size: 14px&quot;&gt;voice control&lt;/span&gt;&lt;/font&gt;&lt;/p&gt;" style="rounded=1;whiteSpace=wrap;html=1;fontSize=12;glass=0;strokeWidth=1;shadow=0;" parent="WIyWlLk6GJQsqaUBKTNV-1" vertex="1">
          <mxGeometry x="447" y="435.40000000000003" width="120" height="40" as="geometry" />
        </mxCell>
        <mxCell id="wvQzWiMlblMlw7H_hbkp-10" value="&lt;p class=&quot;MsoNormal&quot;&gt;&lt;span style=&quot;font-family: &amp;#34;times new roman&amp;#34; ; font-size: 10.5000pt&quot;&gt;questions&amp;nbsp;&lt;/span&gt;&lt;span style=&quot;font-family: &amp;#34;times new roman&amp;#34; ; font-size: 10.5pt&quot;&gt;module&lt;/span&gt;&lt;/p&gt;" style="rounded=1;whiteSpace=wrap;html=1;fontSize=12;glass=0;strokeWidth=1;shadow=0;" parent="WIyWlLk6GJQsqaUBKTNV-1" vertex="1">
          <mxGeometry x="448" y="234" width="120" height="40" as="geometry" />
        </mxCell>
        <mxCell id="wvQzWiMlblMlw7H_hbkp-11" value="&lt;p class=&quot;MsoNormal&quot;&gt;&lt;span style=&quot;color: rgba(0 , 0 , 0 , 0) ; font-family: monospace ; font-size: 0px&quot;&gt;%3CmxGraphModel%3E%3Croot%3E%3CmxCell%20id%3D%220%22%2F%3E%3CmxCell%20id%3D%221%22%20parent%3D%220%22%2F%3E%3CmxCell%20id%3D%222%22%20value%3D%22%26lt%3Bp%20class%3D%26quot%3BMsoNormal%26quot%3B%26gt%3B%26lt%3Bspan%20style%3D%26quot%3Bfont-family%3A%20%26amp%3B%2334%3Btimes%20new%20roman%26amp%3B%2334%3B%20%3B%20font-size%3A%2010.5000pt%26quot%3B%26gt%3Bquestions%26amp%3Bnbsp%3B%26lt%3B%2Fspan%26gt%3B%26lt%3Bspan%20style%3D%26quot%3Bfont-family%3A%20%26amp%3B%2334%3Btimes%20new%20roman%26amp%3B%2334%3B%20%3B%20font-size%3A%2010.5pt%26quot%3B%26gt%3Bmodule%26lt%3B%2Fspan%26gt%3B%26lt%3B%2Fp%26gt%3B%22%20style%3D%22rounded%3D1%3BwhiteSpace%3Dwrap%3Bhtml%3D1%3BfontSize%3D12%3Bglass%3D0%3BstrokeWidth%3D1%3Bshadow%3D0%3B%22%20vertex%3D%221%22%20parent%3D%221%22%3E%3CmxGeometry%20x%3D%22420%22%20y%3D%22100%22%20width%3D%22120%22%20height%3D%2240%22%20as%3D%22geometry%22%2F%3E%3C%2FmxCell%3E%3C%2Froot%3E%3C%2FmxGraphModel%3E&lt;/span&gt;&lt;span style=&quot;font-family: &amp;#34;times new roman&amp;#34; ; font-size: 10.5pt&quot;&gt;back-testing&lt;/span&gt;&lt;br&gt;&lt;/p&gt;" style="rounded=1;whiteSpace=wrap;html=1;fontSize=12;glass=0;strokeWidth=1;shadow=0;" parent="WIyWlLk6GJQsqaUBKTNV-1" vertex="1">
          <mxGeometry x="446" y="114.01" width="120" height="40" as="geometry" />
        </mxCell>
        <mxCell id="wvQzWiMlblMlw7H_hbkp-12" value="&lt;p class=&quot;MsoNormal&quot;&gt;&lt;span style=&quot;font-family: &amp;#34;times new roman&amp;#34; ; font-size: 10.5000pt&quot;&gt;automating&amp;nbsp;&lt;/span&gt;&lt;span style=&quot;font-family: &amp;#34;times new roman&amp;#34; ; font-size: 10.5pt&quot;&gt;trading&lt;/span&gt;&lt;/p&gt;" style="rounded=1;whiteSpace=wrap;html=1;fontSize=12;glass=0;strokeWidth=1;shadow=0;" parent="WIyWlLk6GJQsqaUBKTNV-1" vertex="1">
          <mxGeometry x="448" y="174" width="120" height="40" as="geometry" />
        </mxCell>
        <mxCell id="wvQzWiMlblMlw7H_hbkp-30" value="" style="group;rotation=-45;" parent="WIyWlLk6GJQsqaUBKTNV-1" vertex="1" connectable="0">
          <mxGeometry x="572.85" y="326.42" width="109.15" height="69.98" as="geometry" />
        </mxCell>
        <mxCell id="wvQzWiMlblMlw7H_hbkp-22" value="" style="endArrow=classic;startArrow=classic;html=1;rounded=0;fontSize=12;exitX=1;exitY=0.5;exitDx=0;exitDy=0;" parent="wvQzWiMlblMlw7H_hbkp-30" edge="1">
          <mxGeometry width="50" height="50" relative="1" as="geometry">
            <mxPoint x="-5.645689655172414" y="50.99944459321366" as="sourcePoint" />
            <mxPoint x="111.9728448275862" y="12.99985842572113" as="targetPoint" />
          </mxGeometry>
        </mxCell>
        <mxCell id="wvQzWiMlblMlw7H_hbkp-28" value="&lt;font style=&quot;font-size: 11px&quot;&gt;&lt;b&gt;comand&lt;/b&gt;&lt;/font&gt;" style="text;html=1;strokeColor=none;fillColor=none;align=center;verticalAlign=middle;whiteSpace=wrap;rounded=0;fontSize=12;rotation=-15;" parent="wvQzWiMlblMlw7H_hbkp-30" vertex="1">
          <mxGeometry x="24.464655172413792" y="8.999901987037704" width="56.456896551724135" height="29.99967329012568" as="geometry" />
        </mxCell>
        <mxCell id="wvQzWiMlblMlw7H_hbkp-29" value="&lt;span style=&quot;font-size: 11px&quot;&gt;&lt;b&gt;response&lt;/b&gt;&lt;/span&gt;" style="text;html=1;strokeColor=none;fillColor=none;align=center;verticalAlign=middle;whiteSpace=wrap;rounded=0;fontSize=12;rotation=-15;" parent="wvQzWiMlblMlw7H_hbkp-30" vertex="1">
          <mxGeometry x="30.110344827586207" y="22.99974952242969" width="56.456896551724135" height="29.99967329012568" as="geometry" />
        </mxCell>
        <mxCell id="wvQzWiMlblMlw7H_hbkp-31" value="" style="group" parent="WIyWlLk6GJQsqaUBKTNV-1" vertex="1" connectable="0">
          <mxGeometry x="568" y="182.00961894323342" width="116" height="69.98076211353316" as="geometry" />
        </mxCell>
        <mxCell id="wvQzWiMlblMlw7H_hbkp-32" value="" style="endArrow=classic;startArrow=classic;html=1;rounded=0;fontSize=12;exitX=1;exitY=0.5;exitDx=0;exitDy=0;" parent="wvQzWiMlblMlw7H_hbkp-31" edge="1">
          <mxGeometry width="50" height="50" relative="1" as="geometry">
            <mxPoint y="2.99038105676658" as="sourcePoint" />
            <mxPoint x="116" y="64.99038105676658" as="targetPoint" />
          </mxGeometry>
        </mxCell>
        <mxCell id="wvQzWiMlblMlw7H_hbkp-33" value="&lt;font style=&quot;font-size: 11px&quot;&gt;&lt;b&gt;comand&lt;/b&gt;&lt;/font&gt;" style="text;html=1;strokeColor=none;fillColor=none;align=center;verticalAlign=middle;whiteSpace=wrap;rounded=0;fontSize=12;rotation=30;" parent="wvQzWiMlblMlw7H_hbkp-31" vertex="1">
          <mxGeometry x="33" y="12.99038105676658" width="60" height="30" as="geometry" />
        </mxCell>
        <mxCell id="wvQzWiMlblMlw7H_hbkp-34" value="&lt;span style=&quot;font-size: 11px&quot;&gt;&lt;b&gt;response&lt;/b&gt;&lt;/span&gt;" style="text;html=1;strokeColor=none;fillColor=none;align=center;verticalAlign=middle;whiteSpace=wrap;rounded=0;fontSize=12;rotation=30;" parent="wvQzWiMlblMlw7H_hbkp-31" vertex="1">
          <mxGeometry x="28" y="26.99038105676658" width="60" height="30" as="geometry" />
        </mxCell>
        <mxCell id="wvQzWiMlblMlw7H_hbkp-35" value="" style="group" parent="WIyWlLk6GJQsqaUBKTNV-1" vertex="1" connectable="0">
          <mxGeometry x="566" y="238.99961894323343" width="116" height="69.98076211353316" as="geometry" />
        </mxCell>
        <mxCell id="wvQzWiMlblMlw7H_hbkp-36" value="" style="endArrow=classic;startArrow=classic;html=1;rounded=0;fontSize=12;exitX=1;exitY=0.5;exitDx=0;exitDy=0;" parent="wvQzWiMlblMlw7H_hbkp-35" edge="1">
          <mxGeometry width="50" height="50" relative="1" as="geometry">
            <mxPoint y="2.99038105676658" as="sourcePoint" />
            <mxPoint x="116" y="64.99038105676658" as="targetPoint" />
          </mxGeometry>
        </mxCell>
        <mxCell id="wvQzWiMlblMlw7H_hbkp-37" value="&lt;font style=&quot;font-size: 11px&quot;&gt;&lt;b&gt;comand&lt;/b&gt;&lt;/font&gt;" style="text;html=1;strokeColor=none;fillColor=none;align=center;verticalAlign=middle;whiteSpace=wrap;rounded=0;fontSize=12;rotation=30;" parent="wvQzWiMlblMlw7H_hbkp-35" vertex="1">
          <mxGeometry x="33" y="12.99038105676658" width="60" height="30" as="geometry" />
        </mxCell>
        <mxCell id="wvQzWiMlblMlw7H_hbkp-38" value="&lt;span style=&quot;font-size: 11px&quot;&gt;&lt;b&gt;response&lt;/b&gt;&lt;/span&gt;" style="text;html=1;strokeColor=none;fillColor=none;align=center;verticalAlign=middle;whiteSpace=wrap;rounded=0;fontSize=12;rotation=30;" parent="wvQzWiMlblMlw7H_hbkp-35" vertex="1">
          <mxGeometry x="28" y="26.99038105676658" width="60" height="30" as="geometry" />
        </mxCell>
        <mxCell id="wvQzWiMlblMlw7H_hbkp-39" value="" style="group;rotation=44;" parent="WIyWlLk6GJQsqaUBKTNV-1" vertex="1" connectable="0">
          <mxGeometry x="573.85" y="290.8" width="100" height="61" as="geometry" />
        </mxCell>
        <mxCell id="wvQzWiMlblMlw7H_hbkp-40" value="" style="endArrow=classic;startArrow=classic;html=1;rounded=0;fontSize=12;exitX=1;exitY=0.5;exitDx=0;exitDy=0;" parent="wvQzWiMlblMlw7H_hbkp-39" edge="1">
          <mxGeometry width="50" height="50" relative="1" as="geometry">
            <mxPoint x="-7" y="28" as="sourcePoint" />
            <mxPoint x="109.14999999999998" y="28.19999999999999" as="targetPoint" />
          </mxGeometry>
        </mxCell>
        <mxCell id="wvQzWiMlblMlw7H_hbkp-41" value="&lt;font style=&quot;font-size: 11px&quot;&gt;&lt;b&gt;comand&lt;/b&gt;&lt;/font&gt;" style="text;html=1;strokeColor=none;fillColor=none;align=center;verticalAlign=middle;whiteSpace=wrap;rounded=0;fontSize=12;rotation=0;" parent="wvQzWiMlblMlw7H_hbkp-39" vertex="1">
          <mxGeometry x="26" y="6" width="51.72413793103448" height="26.150043879646564" as="geometry" />
        </mxCell>
        <mxCell id="wvQzWiMlblMlw7H_hbkp-42" value="&lt;span style=&quot;font-size: 11px&quot;&gt;&lt;b&gt;response&lt;/b&gt;&lt;/span&gt;" style="text;html=1;strokeColor=none;fillColor=none;align=center;verticalAlign=middle;whiteSpace=wrap;rounded=0;fontSize=12;rotation=0;" parent="wvQzWiMlblMlw7H_hbkp-39" vertex="1">
          <mxGeometry x="28" y="22" width="51.72413793103448" height="26.150043879646564" as="geometry" />
        </mxCell>
        <mxCell id="wvQzWiMlblMlw7H_hbkp-44" value="" style="group" parent="WIyWlLk6GJQsqaUBKTNV-1" vertex="1" connectable="0">
          <mxGeometry x="566" y="122.00961894323342" width="116" height="69.98076211353316" as="geometry" />
        </mxCell>
        <mxCell id="wvQzWiMlblMlw7H_hbkp-45" value="" style="endArrow=classic;startArrow=classic;html=1;rounded=0;fontSize=12;exitX=1;exitY=0.5;exitDx=0;exitDy=0;" parent="wvQzWiMlblMlw7H_hbkp-44" edge="1">
          <mxGeometry width="50" height="50" relative="1" as="geometry">
            <mxPoint y="2.99038105676658" as="sourcePoint" />
            <mxPoint x="116" y="64.99038105676658" as="targetPoint" />
          </mxGeometry>
        </mxCell>
        <mxCell id="wvQzWiMlblMlw7H_hbkp-46" value="&lt;font style=&quot;font-size: 11px&quot;&gt;&lt;b&gt;comand&lt;/b&gt;&lt;/font&gt;" style="text;html=1;strokeColor=none;fillColor=none;align=center;verticalAlign=middle;whiteSpace=wrap;rounded=0;fontSize=12;rotation=30;" parent="wvQzWiMlblMlw7H_hbkp-44" vertex="1">
          <mxGeometry x="33" y="12.99038105676658" width="60" height="30" as="geometry" />
        </mxCell>
        <mxCell id="wvQzWiMlblMlw7H_hbkp-47" value="&lt;span style=&quot;font-size: 11px&quot;&gt;&lt;b&gt;response&lt;/b&gt;&lt;/span&gt;" style="text;html=1;strokeColor=none;fillColor=none;align=center;verticalAlign=middle;whiteSpace=wrap;rounded=0;fontSize=12;rotation=30;" parent="wvQzWiMlblMlw7H_hbkp-44" vertex="1">
          <mxGeometry x="27.25" y="26.79" width="60" height="33.01" as="geometry" />
        </mxCell>
        <mxCell id="wvQzWiMlblMlw7H_hbkp-54" value="" style="group;rotation=-45;" parent="WIyWlLk6GJQsqaUBKTNV-1" vertex="1" connectable="0">
          <mxGeometry x="571.85" y="394.42" width="109.15" height="69.98" as="geometry" />
        </mxCell>
        <mxCell id="wvQzWiMlblMlw7H_hbkp-55" value="" style="endArrow=classic;startArrow=classic;html=1;rounded=0;fontSize=12;exitX=1;exitY=0.5;exitDx=0;exitDy=0;" parent="wvQzWiMlblMlw7H_hbkp-54" edge="1">
          <mxGeometry width="50" height="50" relative="1" as="geometry">
            <mxPoint x="-5.645689655172414" y="50.99944459321366" as="sourcePoint" />
            <mxPoint x="111.9728448275862" y="12.99985842572113" as="targetPoint" />
          </mxGeometry>
        </mxCell>
        <mxCell id="wvQzWiMlblMlw7H_hbkp-56" value="&lt;font style=&quot;font-size: 11px&quot;&gt;&lt;b&gt;comand&lt;/b&gt;&lt;/font&gt;" style="text;html=1;strokeColor=none;fillColor=none;align=center;verticalAlign=middle;whiteSpace=wrap;rounded=0;fontSize=12;rotation=-15;" parent="wvQzWiMlblMlw7H_hbkp-54" vertex="1">
          <mxGeometry x="24.464655172413792" y="8.999901987037704" width="56.456896551724135" height="29.99967329012568" as="geometry" />
        </mxCell>
        <mxCell id="wvQzWiMlblMlw7H_hbkp-57" value="&lt;span style=&quot;font-size: 11px&quot;&gt;&lt;b&gt;response&lt;/b&gt;&lt;/span&gt;" style="text;html=1;strokeColor=none;fillColor=none;align=center;verticalAlign=middle;whiteSpace=wrap;rounded=0;fontSize=12;rotation=-15;" parent="wvQzWiMlblMlw7H_hbkp-54" vertex="1">
          <mxGeometry x="30.110344827586207" y="22.99974952242969" width="56.456896551724135" height="29.99967329012568" as="geometry" />
        </mxCell>
        <mxCell id="wvQzWiMlblMlw7H_hbkp-58" value="" style="group;rotation=-45;" parent="WIyWlLk6GJQsqaUBKTNV-1" vertex="1" connectable="0">
          <mxGeometry x="572" y="453" width="109.15" height="69.98" as="geometry" />
        </mxCell>
        <mxCell id="wvQzWiMlblMlw7H_hbkp-59" value="" style="endArrow=classic;startArrow=classic;html=1;rounded=0;fontSize=12;exitX=1;exitY=0.5;exitDx=0;exitDy=0;" parent="wvQzWiMlblMlw7H_hbkp-58" edge="1">
          <mxGeometry width="50" height="50" relative="1" as="geometry">
            <mxPoint x="-5.645689655172414" y="50.99944459321366" as="sourcePoint" />
            <mxPoint x="111.9728448275862" y="12.99985842572113" as="targetPoint" />
          </mxGeometry>
        </mxCell>
        <mxCell id="wvQzWiMlblMlw7H_hbkp-60" value="&lt;font style=&quot;font-size: 11px&quot;&gt;&lt;b&gt;comand&lt;/b&gt;&lt;/font&gt;" style="text;html=1;strokeColor=none;fillColor=none;align=center;verticalAlign=middle;whiteSpace=wrap;rounded=0;fontSize=12;rotation=-15;" parent="wvQzWiMlblMlw7H_hbkp-58" vertex="1">
          <mxGeometry x="24.464655172413792" y="8.999901987037704" width="56.456896551724135" height="29.99967329012568" as="geometry" />
        </mxCell>
        <mxCell id="wvQzWiMlblMlw7H_hbkp-61" value="&lt;span style=&quot;font-size: 11px&quot;&gt;&lt;b&gt;response&lt;/b&gt;&lt;/span&gt;" style="text;html=1;strokeColor=none;fillColor=none;align=center;verticalAlign=middle;whiteSpace=wrap;rounded=0;fontSize=12;rotation=-15;" parent="wvQzWiMlblMlw7H_hbkp-58" vertex="1">
          <mxGeometry x="30.110344827586207" y="22.99974952242969" width="56.456896551724135" height="29.99967329012568" as="geometry" />
        </mxCell>
        <mxCell id="wvQzWiMlblMlw7H_hbkp-79" value="Trading API" style="rounded=1;whiteSpace=wrap;html=1;fontSize=12;glass=0;strokeWidth=1;shadow=0;" parent="WIyWlLk6GJQsqaUBKTNV-1" vertex="1">
          <mxGeometry x="220" y="151.98999999999998" width="120" height="40" as="geometry" />
        </mxCell>
        <mxCell id="wvQzWiMlblMlw7H_hbkp-80" value="News API" style="rounded=1;whiteSpace=wrap;html=1;fontSize=12;glass=0;strokeWidth=1;shadow=0;" parent="WIyWlLk6GJQsqaUBKTNV-1" vertex="1">
          <mxGeometry x="220" y="467.99" width="120" height="40" as="geometry" />
        </mxCell>
        <mxCell id="wvQzWiMlblMlw7H_hbkp-81" value="Main API" style="rounded=1;whiteSpace=wrap;html=1;fontSize=12;glass=0;strokeWidth=1;shadow=0;" parent="WIyWlLk6GJQsqaUBKTNV-1" vertex="1">
          <mxGeometry x="118" y="302.5" width="120" height="40" as="geometry" />
        </mxCell>
        <mxCell id="wvQzWiMlblMlw7H_hbkp-82" value="&lt;font style=&quot;font-size: 12px&quot;&gt;Trading Database&lt;/font&gt;" style="strokeWidth=2;html=1;shape=mxgraph.flowchart.annotation_1;align=center;pointerEvents=1;fontSize=8;" parent="WIyWlLk6GJQsqaUBKTNV-1" vertex="1">
          <mxGeometry y="149.32999999999998" width="115" height="41" as="geometry" />
        </mxCell>
        <mxCell id="wvQzWiMlblMlw7H_hbkp-83" value="&lt;font style=&quot;font-size: 12px&quot;&gt;Main Database&lt;/font&gt;" style="strokeWidth=2;html=1;shape=mxgraph.flowchart.annotation_1;align=center;pointerEvents=1;fontSize=8;" parent="WIyWlLk6GJQsqaUBKTNV-1" vertex="1">
          <mxGeometry x="4" y="468.40000000000003" width="115" height="41" as="geometry" />
        </mxCell>
        <mxCell id="wvQzWiMlblMlw7H_hbkp-84" value="" style="endArrow=classic;startArrow=classic;html=1;rounded=0;fontSize=11;entryX=0;entryY=0.5;entryDx=0;entryDy=0;exitX=1;exitY=0.25;exitDx=0;exitDy=0;" parent="WIyWlLk6GJQsqaUBKTNV-1" source="wvQzWiMlblMlw7H_hbkp-79" target="wvQzWiMlblMlw7H_hbkp-11" edge="1">
          <mxGeometry width="50" height="50" relative="1" as="geometry">
            <mxPoint x="280" y="267" as="sourcePoint" />
            <mxPoint x="330" y="217" as="targetPoint" />
          </mxGeometry>
        </mxCell>
        <mxCell id="wvQzWiMlblMlw7H_hbkp-85" value="&lt;span style=&quot;color: rgb(0 , 0 , 0) ; font-family: &amp;#34;helvetica&amp;#34; ; font-style: normal ; letter-spacing: normal ; text-align: center ; text-indent: 0px ; text-transform: none ; word-spacing: 0px ; background-color: rgb(248 , 249 , 250) ; display: inline ; float: none&quot;&gt;&lt;font size=&quot;1&quot;&gt;&lt;b style=&quot;font-size: 11px&quot;&gt;send http requests&lt;/b&gt;&lt;/font&gt;&lt;/span&gt;" style="text;whiteSpace=wrap;html=1;rotation=-15;" parent="WIyWlLk6GJQsqaUBKTNV-1" vertex="1">
          <mxGeometry x="339.29" y="119.01" width="113.56" height="30" as="geometry" />
        </mxCell>
        <mxCell id="wvQzWiMlblMlw7H_hbkp-87" value="&lt;span style=&quot;color: rgb(0 , 0 , 0) ; font-family: &amp;#34;helvetica&amp;#34; ; font-style: normal ; letter-spacing: normal ; text-align: center ; text-indent: 0px ; text-transform: none ; word-spacing: 0px ; background-color: rgb(248 , 249 , 250) ; display: inline ; float: none&quot;&gt;&lt;font size=&quot;1&quot;&gt;&lt;b style=&quot;font-size: 11px&quot;&gt;response&lt;br&gt;&lt;/b&gt;&lt;/font&gt;&lt;/span&gt;" style="text;whiteSpace=wrap;html=1;rotation=-15;" parent="WIyWlLk6GJQsqaUBKTNV-1" vertex="1">
          <mxGeometry x="370.12" y="142.33" width="64.71" height="30" as="geometry" />
        </mxCell>
        <mxCell id="wvQzWiMlblMlw7H_hbkp-90" value="&lt;span style=&quot;color: rgb(0 , 0 , 0) ; font-family: &amp;#34;helvetica&amp;#34; ; font-style: normal ; letter-spacing: normal ; text-align: center ; text-indent: 0px ; text-transform: none ; word-spacing: 0px ; background-color: rgb(248 , 249 , 250) ; display: inline ; float: none&quot;&gt;&lt;font size=&quot;1&quot;&gt;&lt;b style=&quot;font-size: 11px&quot;&gt;send http requests&lt;/b&gt;&lt;/font&gt;&lt;/span&gt;" style="text;whiteSpace=wrap;html=1;rotation=10;" parent="WIyWlLk6GJQsqaUBKTNV-1" vertex="1">
          <mxGeometry x="346" y="166.33" width="113.56" height="30" as="geometry" />
        </mxCell>
        <mxCell id="wvQzWiMlblMlw7H_hbkp-91" value="&lt;span style=&quot;color: rgb(0 , 0 , 0) ; font-family: &amp;#34;helvetica&amp;#34; ; font-style: normal ; letter-spacing: normal ; text-align: center ; text-indent: 0px ; text-transform: none ; word-spacing: 0px ; background-color: rgb(248 , 249 , 250) ; display: inline ; float: none&quot;&gt;&lt;font size=&quot;1&quot;&gt;&lt;b style=&quot;font-size: 11px&quot;&gt;response&lt;br&gt;&lt;/b&gt;&lt;/font&gt;&lt;/span&gt;" style="text;whiteSpace=wrap;html=1;rotation=10;" parent="WIyWlLk6GJQsqaUBKTNV-1" vertex="1">
          <mxGeometry x="355" y="188" width="64.71" height="30" as="geometry" />
        </mxCell>
        <mxCell id="wvQzWiMlblMlw7H_hbkp-92" value="" style="endArrow=classic;startArrow=classic;html=1;rounded=0;fontSize=11;exitX=1;exitY=0;exitDx=0;exitDy=0;entryX=0;entryY=0.5;entryDx=0;entryDy=0;" parent="WIyWlLk6GJQsqaUBKTNV-1" source="wvQzWiMlblMlw7H_hbkp-81" target="wvQzWiMlblMlw7H_hbkp-10" edge="1">
          <mxGeometry width="50" height="50" relative="1" as="geometry">
            <mxPoint x="410" y="340" as="sourcePoint" />
            <mxPoint x="460" y="290" as="targetPoint" />
          </mxGeometry>
        </mxCell>
        <mxCell id="wvQzWiMlblMlw7H_hbkp-93" value="&lt;span style=&quot;color: rgb(0 , 0 , 0) ; font-family: &amp;#34;helvetica&amp;#34; ; font-style: normal ; letter-spacing: normal ; text-align: center ; text-indent: 0px ; text-transform: none ; word-spacing: 0px ; background-color: rgb(248 , 249 , 250) ; display: inline ; float: none&quot;&gt;&lt;font size=&quot;1&quot;&gt;&lt;b style=&quot;font-size: 11px&quot;&gt;send http requests&lt;/b&gt;&lt;/font&gt;&lt;/span&gt;" style="text;whiteSpace=wrap;html=1;rotation=-15;" parent="WIyWlLk6GJQsqaUBKTNV-1" vertex="1">
          <mxGeometry x="299.29" y="254.01" width="113.56" height="30" as="geometry" />
        </mxCell>
        <mxCell id="wvQzWiMlblMlw7H_hbkp-94" value="&lt;span style=&quot;color: rgb(0 , 0 , 0) ; font-family: &amp;#34;helvetica&amp;#34; ; font-style: normal ; letter-spacing: normal ; text-align: center ; text-indent: 0px ; text-transform: none ; word-spacing: 0px ; background-color: rgb(248 , 249 , 250) ; display: inline ; float: none&quot;&gt;&lt;font size=&quot;1&quot;&gt;&lt;b style=&quot;font-size: 11px&quot;&gt;response&lt;br&gt;&lt;/b&gt;&lt;/font&gt;&lt;/span&gt;" style="text;whiteSpace=wrap;html=1;rotation=-15;" parent="WIyWlLk6GJQsqaUBKTNV-1" vertex="1">
          <mxGeometry x="345" y="269" width="64.71" height="30" as="geometry" />
        </mxCell>
        <mxCell id="wvQzWiMlblMlw7H_hbkp-96" value="&lt;span style=&quot;color: rgb(0 , 0 , 0) ; font-family: &amp;#34;helvetica&amp;#34; ; font-style: normal ; letter-spacing: normal ; text-align: center ; text-indent: 0px ; text-transform: none ; word-spacing: 0px ; background-color: rgb(248 , 249 , 250) ; display: inline ; float: none&quot;&gt;&lt;font size=&quot;1&quot;&gt;&lt;b style=&quot;font-size: 11px&quot;&gt;send http requests&lt;/b&gt;&lt;/font&gt;&lt;/span&gt;" style="text;whiteSpace=wrap;html=1;rotation=0;" parent="WIyWlLk6GJQsqaUBKTNV-1" vertex="1">
          <mxGeometry x="308.15000000000003" y="298.41999999999996" width="113.56" height="30" as="geometry" />
        </mxCell>
        <mxCell id="wvQzWiMlblMlw7H_hbkp-98" value="&lt;span style=&quot;color: rgb(0 , 0 , 0) ; font-family: &amp;#34;helvetica&amp;#34; ; font-style: normal ; letter-spacing: normal ; text-align: center ; text-indent: 0px ; text-transform: none ; word-spacing: 0px ; background-color: rgb(248 , 249 , 250) ; display: inline ; float: none&quot;&gt;&lt;font size=&quot;1&quot;&gt;&lt;b style=&quot;font-size: 11px&quot;&gt;response&lt;br&gt;&lt;/b&gt;&lt;/font&gt;&lt;/span&gt;" style="text;whiteSpace=wrap;html=1;rotation=0;" parent="WIyWlLk6GJQsqaUBKTNV-1" vertex="1">
          <mxGeometry x="326" y="317.42" width="64.71" height="30" as="geometry" />
        </mxCell>
        <mxCell id="wvQzWiMlblMlw7H_hbkp-99" value="" style="endArrow=classic;startArrow=classic;html=1;rounded=0;fontSize=11;exitX=1;exitY=1;exitDx=0;exitDy=0;" parent="WIyWlLk6GJQsqaUBKTNV-1" source="wvQzWiMlblMlw7H_hbkp-81" edge="1">
          <mxGeometry width="50" height="50" relative="1" as="geometry">
            <mxPoint x="273" y="438.5" as="sourcePoint" />
            <mxPoint x="450" y="390" as="targetPoint" />
          </mxGeometry>
        </mxCell>
        <mxCell id="wvQzWiMlblMlw7H_hbkp-100" value="&lt;span style=&quot;color: rgb(0 , 0 , 0) ; font-family: &amp;#34;helvetica&amp;#34; ; font-style: normal ; letter-spacing: normal ; text-align: center ; text-indent: 0px ; text-transform: none ; word-spacing: 0px ; background-color: rgb(248 , 249 , 250) ; display: inline ; float: none&quot;&gt;&lt;font size=&quot;1&quot;&gt;&lt;b style=&quot;font-size: 11px&quot;&gt;send http requests&lt;/b&gt;&lt;/font&gt;&lt;/span&gt;" style="text;whiteSpace=wrap;html=1;rotation=15;" parent="WIyWlLk6GJQsqaUBKTNV-1" vertex="1">
          <mxGeometry x="312.15000000000003" y="345.41999999999996" width="113.56" height="30" as="geometry" />
        </mxCell>
        <mxCell id="wvQzWiMlblMlw7H_hbkp-101" value="&lt;span style=&quot;color: rgb(0 , 0 , 0) ; font-family: &amp;#34;helvetica&amp;#34; ; font-style: normal ; letter-spacing: normal ; text-align: center ; text-indent: 0px ; text-transform: none ; word-spacing: 0px ; background-color: rgb(248 , 249 , 250) ; display: inline ; float: none&quot;&gt;&lt;font size=&quot;1&quot;&gt;&lt;b style=&quot;font-size: 11px&quot;&gt;response&lt;br&gt;&lt;/b&gt;&lt;/font&gt;&lt;/span&gt;" style="text;whiteSpace=wrap;html=1;rotation=15;" parent="WIyWlLk6GJQsqaUBKTNV-1" vertex="1">
          <mxGeometry x="317" y="365.42" width="64.71" height="30" as="geometry" />
        </mxCell>
        <mxCell id="wvQzWiMlblMlw7H_hbkp-102" value="" style="endArrow=classic;startArrow=classic;html=1;rounded=0;fontSize=11;exitX=1;exitY=0.5;exitDx=0;exitDy=0;entryX=0;entryY=0.5;entryDx=0;entryDy=0;" parent="WIyWlLk6GJQsqaUBKTNV-1" source="wvQzWiMlblMlw7H_hbkp-80" target="wvQzWiMlblMlw7H_hbkp-4" edge="1">
          <mxGeometry width="50" height="50" relative="1" as="geometry">
            <mxPoint x="259.82999999999976" y="467.99" as="sourcePoint" />
            <mxPoint x="450" y="510" as="targetPoint" />
          </mxGeometry>
        </mxCell>
        <mxCell id="wvQzWiMlblMlw7H_hbkp-103" value="&lt;span style=&quot;color: rgb(0 , 0 , 0) ; font-family: &amp;#34;helvetica&amp;#34; ; font-style: normal ; letter-spacing: normal ; text-align: center ; text-indent: 0px ; text-transform: none ; word-spacing: 0px ; background-color: rgb(248 , 249 , 250) ; display: inline ; float: none&quot;&gt;&lt;font size=&quot;1&quot;&gt;&lt;b style=&quot;font-size: 11px&quot;&gt;send http requests&lt;/b&gt;&lt;/font&gt;&lt;/span&gt;" style="text;whiteSpace=wrap;html=1;rotation=15;" parent="WIyWlLk6GJQsqaUBKTNV-1" vertex="1">
          <mxGeometry x="347.29" y="479.01" width="113.56" height="30" as="geometry" />
        </mxCell>
        <mxCell id="wvQzWiMlblMlw7H_hbkp-104" value="&lt;span style=&quot;color: rgb(0 , 0 , 0) ; font-family: &amp;#34;helvetica&amp;#34; ; font-style: normal ; letter-spacing: normal ; text-align: center ; text-indent: 0px ; text-transform: none ; word-spacing: 0px ; background-color: rgb(248 , 249 , 250) ; display: inline ; float: none&quot;&gt;&lt;font size=&quot;1&quot;&gt;&lt;b style=&quot;font-size: 11px&quot;&gt;response&lt;br&gt;&lt;/b&gt;&lt;/font&gt;&lt;/span&gt;" style="text;whiteSpace=wrap;html=1;rotation=15;" parent="WIyWlLk6GJQsqaUBKTNV-1" vertex="1">
          <mxGeometry x="360" y="497.42" width="64.71" height="30" as="geometry" />
        </mxCell>
        <mxCell id="wvQzWiMlblMlw7H_hbkp-107" value="" style="endArrow=classic;startArrow=classic;html=1;rounded=0;fontSize=11;entryX=0;entryY=0.5;entryDx=0;entryDy=0;" parent="WIyWlLk6GJQsqaUBKTNV-1" source="wvQzWiMlblMlw7H_hbkp-82" edge="1">
          <mxGeometry width="50" height="50" relative="1" as="geometry">
            <mxPoint x="145.00000000000023" y="173.82999999999993" as="sourcePoint" />
            <mxPoint x="219.99999999999977" y="169.9899999999999" as="targetPoint" />
          </mxGeometry>
        </mxCell>
        <mxCell id="wvQzWiMlblMlw7H_hbkp-108" value="&lt;span style=&quot;font-family: &amp;#34;helvetica&amp;#34; ; text-align: center&quot;&gt;&lt;font style=&quot;font-size: 11px&quot;&gt;&lt;b&gt;returning data&amp;nbsp;&lt;/b&gt;&lt;/font&gt;&lt;/span&gt;" style="text;whiteSpace=wrap;html=1;rotation=0;" parent="WIyWlLk6GJQsqaUBKTNV-1" vertex="1">
          <mxGeometry x="129" y="166" width="85" height="24" as="geometry" />
        </mxCell>
        <mxCell id="wvQzWiMlblMlw7H_hbkp-109" value="&lt;span style=&quot;font-family: &amp;#34;helvetica&amp;#34; ; text-align: center&quot;&gt;&lt;font style=&quot;font-size: 11px&quot;&gt;&lt;b&gt;seding data&lt;/b&gt;&lt;/font&gt;&lt;/span&gt;" style="text;whiteSpace=wrap;html=1;rotation=0;" parent="WIyWlLk6GJQsqaUBKTNV-1" vertex="1">
          <mxGeometry x="134" y="144" width="85" height="24" as="geometry" />
        </mxCell>
        <mxCell id="wvQzWiMlblMlw7H_hbkp-115" value="" style="endArrow=classic;startArrow=classic;html=1;rounded=0;fontSize=11;entryX=0;entryY=0.5;entryDx=0;entryDy=0;" parent="WIyWlLk6GJQsqaUBKTNV-1" edge="1">
          <mxGeometry width="50" height="50" relative="1" as="geometry">
            <mxPoint x="114.99999999999977" y="489.88661538461537" as="sourcePoint" />
            <mxPoint x="219.99999999999977" y="489.9899999999999" as="targetPoint" />
          </mxGeometry>
        </mxCell>
        <mxCell id="wvQzWiMlblMlw7H_hbkp-116" value="&lt;span style=&quot;font-family: &amp;#34;helvetica&amp;#34; ; text-align: center&quot;&gt;&lt;font style=&quot;font-size: 11px&quot;&gt;&lt;b&gt;returning data&amp;nbsp;&lt;/b&gt;&lt;/font&gt;&lt;/span&gt;" style="text;whiteSpace=wrap;html=1;rotation=0;" parent="WIyWlLk6GJQsqaUBKTNV-1" vertex="1">
          <mxGeometry x="129" y="486" width="85" height="24" as="geometry" />
        </mxCell>
        <mxCell id="wvQzWiMlblMlw7H_hbkp-117" value="&lt;span style=&quot;font-family: &amp;#34;helvetica&amp;#34; ; text-align: center&quot;&gt;&lt;font style=&quot;font-size: 11px&quot;&gt;&lt;b&gt;seding data&lt;/b&gt;&lt;/font&gt;&lt;/span&gt;" style="text;whiteSpace=wrap;html=1;rotation=0;" parent="WIyWlLk6GJQsqaUBKTNV-1" vertex="1">
          <mxGeometry x="135" y="465" width="85" height="24" as="geometry" />
        </mxCell>
        <mxCell id="wvQzWiMlblMlw7H_hbkp-124" value="" style="endArrow=classic;startArrow=classic;html=1;rounded=0;fontSize=11;entryX=0.182;entryY=1.033;entryDx=0;entryDy=0;entryPerimeter=0;exitX=0.549;exitY=-0.008;exitDx=0;exitDy=0;exitPerimeter=0;" parent="WIyWlLk6GJQsqaUBKTNV-1" source="wvQzWiMlblMlw7H_hbkp-83" target="wvQzWiMlblMlw7H_hbkp-81" edge="1">
          <mxGeometry width="50" height="50" relative="1" as="geometry">
            <mxPoint x="77.99999999999977" y="449" as="sourcePoint" />
            <mxPoint x="129.99999999999977" y="358" as="targetPoint" />
          </mxGeometry>
        </mxCell>
        <mxCell id="wvQzWiMlblMlw7H_hbkp-125" value="&lt;span style=&quot;font-family: &amp;#34;helvetica&amp;#34; ; text-align: center&quot;&gt;&lt;font style=&quot;font-size: 11px&quot;&gt;&lt;b&gt;returning data&amp;nbsp;&lt;/b&gt;&lt;/font&gt;&lt;/span&gt;" style="text;whiteSpace=wrap;html=1;rotation=-60;" parent="WIyWlLk6GJQsqaUBKTNV-1" vertex="1">
          <mxGeometry x="67.99999999999977" y="391" width="85" height="24" as="geometry" />
        </mxCell>
        <mxCell id="wvQzWiMlblMlw7H_hbkp-126" value="&lt;span style=&quot;font-family: &amp;#34;helvetica&amp;#34; ; text-align: center&quot;&gt;&lt;font style=&quot;font-size: 11px&quot;&gt;&lt;b&gt;seding data&lt;/b&gt;&lt;/font&gt;&lt;/span&gt;" style="text;whiteSpace=wrap;html=1;rotation=-60;" parent="WIyWlLk6GJQsqaUBKTNV-1" vertex="1">
          <mxGeometry x="54.99999999999977" y="380" width="85" height="24" as="geometry" />
        </mxCell>
        <mxCell id="CptHNmRMP6npDfdPWrn0-0" value="Auto API" style="rounded=1;whiteSpace=wrap;html=1;fontSize=12;glass=0;strokeWidth=1;shadow=0;" vertex="1" parent="WIyWlLk6GJQsqaUBKTNV-1">
          <mxGeometry x="221" y="407.99" width="120" height="40" as="geometry" />
        </mxCell>
        <mxCell id="CptHNmRMP6npDfdPWrn0-1" value="" style="endArrow=classic;startArrow=classic;html=1;rounded=0;fontSize=11;exitX=1;exitY=0.5;exitDx=0;exitDy=0;entryX=0;entryY=0.5;entryDx=0;entryDy=0;" edge="1" parent="WIyWlLk6GJQsqaUBKTNV-1">
          <mxGeometry width="50" height="50" relative="1" as="geometry">
            <mxPoint x="342" y="427.99" as="sourcePoint" />
            <mxPoint x="448.0000000000002" y="454" as="targetPoint" />
          </mxGeometry>
        </mxCell>
        <mxCell id="CptHNmRMP6npDfdPWrn0-2" value="&lt;span style=&quot;color: rgb(0 , 0 , 0) ; font-family: &amp;#34;helvetica&amp;#34; ; font-style: normal ; letter-spacing: normal ; text-align: center ; text-indent: 0px ; text-transform: none ; word-spacing: 0px ; background-color: rgb(248 , 249 , 250) ; display: inline ; float: none&quot;&gt;&lt;font size=&quot;1&quot;&gt;&lt;b style=&quot;font-size: 11px&quot;&gt;response&lt;br&gt;&lt;/b&gt;&lt;/font&gt;&lt;/span&gt;" style="text;whiteSpace=wrap;html=1;rotation=15;" vertex="1" parent="WIyWlLk6GJQsqaUBKTNV-1">
          <mxGeometry x="358" y="434.42" width="64.71" height="30" as="geometry" />
        </mxCell>
        <mxCell id="CptHNmRMP6npDfdPWrn0-3" value="&lt;span style=&quot;color: rgb(0 , 0 , 0) ; font-family: &amp;#34;helvetica&amp;#34; ; font-style: normal ; letter-spacing: normal ; text-align: center ; text-indent: 0px ; text-transform: none ; word-spacing: 0px ; background-color: rgb(248 , 249 , 250) ; display: inline ; float: none&quot;&gt;&lt;font size=&quot;1&quot;&gt;&lt;b style=&quot;font-size: 11px&quot;&gt;send http requests&lt;/b&gt;&lt;/font&gt;&lt;/span&gt;" style="text;whiteSpace=wrap;html=1;rotation=15;" vertex="1" parent="WIyWlLk6GJQsqaUBKTNV-1">
          <mxGeometry x="346.29" y="421.01" width="113.56" height="30" as="geometry" />
        </mxCell>
        <mxCell id="CptHNmRMP6npDfdPWrn0-4" value="" style="endArrow=classic;startArrow=classic;html=1;rounded=0;fontSize=11;entryX=0;entryY=0.75;entryDx=0;entryDy=0;exitX=0.791;exitY=-0.028;exitDx=0;exitDy=0;exitPerimeter=0;" edge="1" parent="WIyWlLk6GJQsqaUBKTNV-1" source="wvQzWiMlblMlw7H_hbkp-83" target="CptHNmRMP6npDfdPWrn0-0">
          <mxGeometry width="50" height="50" relative="1" as="geometry">
            <mxPoint x="114.99999999999977" y="449.8866153846154" as="sourcePoint" />
            <mxPoint x="219.99999999999977" y="449.9899999999999" as="targetPoint" />
          </mxGeometry>
        </mxCell>
        <mxCell id="CptHNmRMP6npDfdPWrn0-5" value="&lt;span style=&quot;font-family: &amp;#34;helvetica&amp;#34; ; text-align: center&quot;&gt;&lt;font style=&quot;font-size: 11px&quot;&gt;&lt;b&gt;seding data&lt;/b&gt;&lt;/font&gt;&lt;/span&gt;" style="text;whiteSpace=wrap;html=1;rotation=347;" vertex="1" parent="WIyWlLk6GJQsqaUBKTNV-1">
          <mxGeometry x="126" y="429" width="85" height="24" as="geometry" />
        </mxCell>
        <mxCell id="CptHNmRMP6npDfdPWrn0-6" value="&lt;span style=&quot;font-family: &amp;#34;helvetica&amp;#34; ; text-align: center&quot;&gt;&lt;font style=&quot;font-size: 11px&quot;&gt;&lt;b&gt;returning data&amp;nbsp;&lt;/b&gt;&lt;/font&gt;&lt;/span&gt;" style="text;whiteSpace=wrap;html=1;rotation=346;" vertex="1" parent="WIyWlLk6GJQsqaUBKTNV-1">
          <mxGeometry x="125" y="444" width="85" height="24" as="geometry" />
        </mxCell>
      </root>
    </mxGraphModel>
  </diagram>
</mxfile>
